<?xml version="1.0" encoding="utf-8"?>
<!-- Generator: Adobe Illustrator 26.5.0, SVG Export Plug-In . SVG Version: 6.00 Build 0)  -->
<svg version="1.1" id="Layer_1" xmlns="http://www.w3.org/2000/svg" xmlns:xlink="http://www.w3.org/1999/xlink" x="0px" y="0px"
	 viewBox="0 0 40 44" style="enable-background:new 0 0 40 44;" xml:space="preserve">
<style type="text/css">
	.st0{fill:#EA7639;}
</style>
<g id="Group_2" transform="translate(0 25.2)">
	<g>
		<g>
			<g id="Group_3" transform="translate(0 -25.2)">
				<g id="Group_2-2" transform="translate(0.001 -0.001)">
					<path id="Path_1" class="st0" d="M30.4,19.1c3.9-1.3,6.6-5,6.8-9.1c0-5.5-5.1-10-11.3-10h-0.6H1.7H0v44h8.5V7.9h16.8h0.6
						c1.6,0,3,0.9,3,2s-1.4,2-3,2h-0.5l0,0h-1.7v14.3h1.6h0.2c3.5,0,6.3,2.2,6.3,4.9S29,36,25.5,36h-5.1V12h-8.5v32h13.6
						c8,0,14.5-5.8,14.5-12.9C40,25.6,36,20.9,30.4,19.1 M25.4,13.6h0.5c2.6,0,4.7-1.6,4.7-3.6s-2.1-3.6-4.7-3.6h-0.6H6.8v36h-2V4.5
						h20.5h0.6c3.6,0,6.6,2.4,6.6,5.5s-3,5.5-6.6,5.5h-0.5V13.6z M25.4,16.5h0.5c4.2,0,7.7-2.9,7.7-6.5s-3.5-6.5-7.7-6.5h-0.6H4.8
						l0,0H3.7v38.9h-2V1.6h23.6h0.6l0,0c5.3,0,9.6,3.7,9.6,8.4s-4.3,8.4-9.6,8.4l0,0h-0.4L25.4,16.5z M16.7,39.5V13.6h2v24.1h6.8
						l0,0l0,0c4.4,0,7.9-2.9,7.9-6.5s-3.6-6.5-7.9-6.5h-0.1v-1.8l0,0c5.4,0,9.9,3.7,9.9,8.3s-4.4,8.3-9.8,8.3H16.7L16.7,39.5z
						 M25.5,42.4H13.6V13.6h2v27h9.9c6,0,11-4.2,11-9.4s-4.9-9.4-11-9.4l0,0V20l0,0c7.1,0,12.9,5,12.9,11.2S32.6,42.4,25.5,42.4"/>
				</g>
			</g>
		</g>
	</g>
</g>
</svg>
